<?xml version="1.0" encoding="UTF-8"?>
<svg width="1000px" height="1000px" viewBox="0 0 1000 1000" version="1.1" xmlns="http://www.w3.org/2000/svg" xmlns:xlink="http://www.w3.org/1999/xlink">
    <!-- Generator: Sketch 55 (78076) - https://sketchapp.com -->
    <title>编组 50</title>
    <desc>Created with Sketch.</desc>
    <defs>
        <linearGradient x1="0.0237024221%" y1="50.0170807%" x2="100.010519%" y2="50.0170807%" id="linearGradient-1">
            <stop stop-color="#42E4FF" offset="0%"></stop>
            <stop stop-color="#3E85FF" offset="100%"></stop>
        </linearGradient>
    </defs>
    <g id="上传" stroke="none" stroke-width="1" fill="none" fill-rule="evenodd">
        <g id="画板" transform="translate(-7255.000000, -1507.000000)">
            <g id="编组-50" transform="translate(7255.000000, 1507.000000)">
                <rect id="矩形备份-16" x="0" y="0" width="1000" height="1000"></rect>
                <g id="编组-142" transform="translate(91.000000, 203.000000)">
                    <g id="编组-141">
                        <g id="编组-8" transform="translate(261.000000, 0.000000)" fill-rule="nonzero">
                            <path d="M578,31.2 L578,395.2 C578,405.8 569.4,414.4 558.8,414.4 L19.4,414.4 C8.8,414.4 0.2,405.8 0.2,395.2 L0.2,31.2 C0.2,14 107,-2.95585778e-12 124.2,-2.95585778e-12 L547,-2.95585778e-12 C564.2,-2.95585778e-12 578,14 578,31.2 Z" id="路径" fill="#FFFFFF"></path>
                            <path d="M578,31.2 L578,64.4 L0,64.4 L0,31.2 C0,14 14,-2.95585778e-12 31.2,-2.95585778e-12 L546.8,-2.95585778e-12 C564.2,-2.95585778e-12 578,14 578,31.2 Z" id="路径" fill="url(#linearGradient-1)"></path>
                            <g id="编组" transform="translate(38.800000, 23.000000)" fill="#FFFFFF">
                                <circle id="椭圆形" cx="9.4" cy="9.2" r="7.6"></circle>
                                <circle id="椭圆形" cx="44.8" cy="9.2" r="7.6"></circle>
                                <circle id="椭圆形" cx="80.2" cy="9.2" r="7.6"></circle>
                            </g>
                            <g id="编组" transform="translate(504.800000, 9.000000)">
                                <circle id="椭圆形" fill="#FFFFFF" cx="23.4" cy="23.2" r="21.8"></circle>
                                <g transform="translate(12.000000, 12.000000)" fill="#310078" id="路径">
                                    <path d="M21,22.4 C20.6,22.4 20.2,22.2 19.8,22 L0.8,3 C0.2,2.4 0.2,1.4 0.8,0.6 C1.4,2.77555756e-17 2.4,2.77555756e-17 3.2,0.6 L22.2,19.6 C22.8,20.2 22.8,21.2 22.2,22 C21.8,22.2 21.4,22.4 21,22.4 Z"></path>
                                    <path d="M2,22.4 C1.6,22.4 1.2,22.2 0.8,22 C0.2,21.4 0.2,20.4 0.8,19.6 L19.8,0.6 C20.4,2.77555756e-17 21.4,2.77555756e-17 22.2,0.6 C22.8,1.2 22.8,2.2 22.2,3 L3.2,22 C3,22.2 2.6,22.4 2,22.4 Z"></path>
                                </g>
                            </g>
                            <g id="编组" transform="translate(424.800000, 115.000000)">
                                <path d="M9.6,111.4 L115.4,111.4 C119.8,111.4 123.4,107.8 123.4,103.4 L123.4,9.8 C123.4,5.4 119.8,1.8 115.4,1.8 L9.6,1.8 C5.2,1.8 1.6,5.4 1.6,9.8 L1.6,103.4 C1.6,107.8 5.2,111.4 9.6,111.4 Z" id="路径" fill="#DBF4FF"></path>
                                <g transform="translate(20.000000, 24.000000)">
                                    <g transform="translate(14.000000, 14.000000)" fill="#42E4FF" id="矩形">
                                        <rect x="1.6" y="1" width="10" height="49.6"></rect>
                                        <rect x="17.4" y="16.8" width="10" height="33.8"></rect>
                                        <rect x="33.2" y="8.2" width="10" height="42.4"></rect>
                                        <rect x="49.2" y="29.4" width="10" height="21.2"></rect>
                                        <rect x="65" y="36.2" width="10" height="14.2"></rect>
                                    </g>
                                    <g id="路径">
                                        <g transform="translate(0.000000, 6.000000)" fill="#42E4FF">
                                            <path d="M7.8,53.8 L2,53.8 C1.4,53.8 1,53.4 1,52.8 C1,52.2 1.4,51.8 2,51.8 L7.8,51.8 C8.4,51.8 8.8,52.2 8.8,52.8 C8.8,53.4 8.4,53.8 7.8,53.8 Z"></path>
                                            <path d="M7.8,45.2 L2,45.2 C1.4,45.2 1,44.8 1,44.2 C1,43.6 1.4,43.2 2,43.2 L7.8,43.2 C8.4,43.2 8.8,43.6 8.8,44.2 C8.8,44.8 8.4,45.2 7.8,45.2 Z"></path>
                                            <path d="M7.8,36.6 L2,36.6 C1.4,36.6 1,36.2 1,35.6 C1,35 1.4,34.6 2,34.6 L7.8,34.6 C8.4,34.6 8.8,35 8.8,35.6 C8.8,36.2 8.4,36.6 7.8,36.6 Z"></path>
                                            <path d="M7.8,28 L2,28 C1.4,28 1,27.6 1,27 C1,26.4 1.4,26 2,26 L7.8,26 C8.4,26 8.8,26.4 8.8,27 C8.8,27.6 8.4,28 7.8,28 Z"></path>
                                            <path d="M7.8,19.4 L2,19.4 C1.4,19.4 1,19 1,18.4 C1,17.8 1.4,17.4 2,17.4 L7.8,17.4 C8.4,17.4 8.8,17.8 8.8,18.4 C8.8,19 8.4,19.4 7.8,19.4 Z"></path>
                                            <path d="M7.8,10.8 L2,10.8 C1.4,10.8 1,10.4 1,9.8 C1,9.2 1.4,8.8 2,8.8 L7.8,8.8 C8.4,8.8 8.8,9.2 8.8,9.8 C8.8,10.4 8.4,10.8 7.8,10.8 Z"></path>
                                            <path d="M7.8,2.2 L2,2.2 C1.4,2.2 1,1.8 1,1.2 C1,0.6 1.4,0.2 2,0.2 L7.8,0.2 C8.4,0.2 8.8,0.6 8.8,1.2 C8.8,1.8 8.4,2.2 7.8,2.2 Z"></path>
                                        </g>
                                        <path d="M90.2,65.4 L6.8,65.4 L6.8,2 C6.8,1.4 7.2,1 7.8,1 C8.4,1 8.8,1.4 8.8,2 L8.8,63.6 L90,63.6 C90.6,63.6 91,64 91,64.6 C91,65.2 90.8,65.4 90.2,65.4 Z" fill="#3E85FF"></path>
                                    </g>
                                </g>
                            </g>
                            <g id="编组" transform="translate(42.800000, 115.000000)">
                                <path d="M350.8,8.4 L350.8,103.2 C350.8,107.2 347.4,110.6 343.2,110.6 L8.4,110.6 C4,110.6 0.4,107.2 0.4,102.8 L0.4,9 C0.4,4.8 4,1.2 8.4,1.2 L343.2,1.2 C347.4,1 350.8,4.4 350.8,8.4 Z" id="路径" fill="#DBF4FF"></path>
                                <g transform="translate(2.000000, 30.000000)" fill="#E4EBF5" id="路径">
                                    <path d="M242.4,80.4 L242.4,1.8 C241.8,2.2 241.4,2.6 240.8,3.2 L240.8,80.6 L242.4,80.6 L242.4,80.4 Z"></path>
                                    <path d="M236.6,80.4 L236.6,6 C236,6.4 235.4,6.6 235,7 L235,80.6 L236.6,80.6 L236.6,80.4 Z"></path>
                                    <path d="M231,80.4 L231,8.6 C230.4,8.8 229.8,8.8 229.4,9 L229.4,80.4 L231,80.4 Z"></path>
                                    <path d="M225.2,80.4 L225.2,8.8 C224.6,8.6 224,8.4 223.6,8.4 L223.6,80.4 L225.2,80.4 Z"></path>
                                    <path d="M219.6,80.4 L219.6,7 C219.6,7 219.6,7 219.6,7 C219,6.8 218.6,6.6 218,6.6 L218,80.4 L219.6,80.4 Z"></path>
                                    <path d="M213.8,80.4 L213.8,5.2 C213.2,5 212.6,4.8 212.2,4.4 L212.2,80.4 L213.8,80.4 Z"></path>
                                    <path d="M208.2,80.4 L208.2,2.8 C208,2.8 207.8,2.6 207.6,2.6 C207.2,2.8 207,3 206.6,3.2 L206.6,80.4 L208.2,80.4 Z"></path>
                                    <path d="M202.6,80.4 L202.6,5.4 C202,5.8 201.4,6.2 201,6.6 L201,80.2 L202.6,80.2 L202.6,80.4 Z"></path>
                                    <path d="M196.8,80.4 L196.8,10.4 C196.2,11 195.6,11.4 195.2,12 L195.2,80.6 L196.8,80.6 L196.8,80.4 Z"></path>
                                    <path d="M191.2,80.4 L191.2,15.4 C190.6,16 190,16.4 189.6,17 L189.6,80.4 L191.2,80.4 Z"></path>
                                    <path d="M185.4,80.4 L185.4,21.2 C184.8,21.8 184.2,22.4 183.8,23 L183.8,80.2 L185.4,80.2 L185.4,80.4 Z"></path>
                                    <path d="M179.8,80.4 L179.8,27.2 C179.6,27.4 179.4,27.6 179.2,27.8 C178.8,28 178.6,28.4 178.2,28.6 L178.2,80.4 L179.8,80.4 L179.8,80.4 Z"></path>
                                    <path d="M174,80.4 L174,33 C173.4,33.6 173,34.2 172.4,34.8 L172.4,80.4 L174,80.4 Z"></path>
                                    <path d="M168.4,80.4 L168.4,38.6 C168.2,38.6 168.2,38.8 168,38.8 C167.6,39.4 167,39.8 166.6,40.4 L166.6,80.4 L168.4,80.4 L168.4,80.4 Z"></path>
                                    <path d="M162.6,80.4 L162.6,45.4 C162,46 161.4,46.6 161,47.2 L161,80.4 L162.6,80.4 Z"></path>
                                    <path d="M157,80.4 L157,52 C156.4,52.6 156,52.8 155.4,53.2 L155.4,80.4 L157,80.4 L157,80.4 Z"></path>
                                    <path d="M151.2,80.4 L151.2,53.4 C150.6,53.2 150,53 149.6,52.6 L149.6,80.4 L151.2,80.4 Z"></path>
                                    <path d="M145.6,80.4 L145.6,47.2 C145,46.8 144.4,46.2 144,45.8 L144,80.4 L145.6,80.4 Z"></path>
                                    <path d="M140,80.4 L140,42.6 C139.4,42.2 138.8,41.6 138.4,41 C138.4,41 138.4,41 138.4,41 L138.4,80.4 L140,80.4 Z"></path>
                                    <path d="M134.2,80.4 L134.2,38.6 C133.6,38.2 133,37.8 132.6,37.4 L132.6,80.6 L134.2,80.6 L134.2,80.4 Z"></path>
                                    <path d="M128.6,80.4 L128.6,34.8 C128,34.4 127.4,34.2 127,33.8 L127,80.4 L128.6,80.4 Z"></path>
                                    <path d="M122.8,80.4 L122.8,30.8 C122.2,30.4 121.6,29.8 121.2,29.2 L121.2,80.2 L122.8,80.2 L122.8,80.4 Z"></path>
                                    <path d="M117.2,80.4 L117.2,25 C116.6,24.4 116,23.8 115.6,23.2 L115.6,80.4 L117.2,80.4 L117.2,80.4 Z"></path>
                                    <path d="M111.4,80.4 L111.4,19.8 C110.8,19.4 110.2,19 109.8,18.6 L109.8,80.4 L111.4,80.4 L111.4,80.4 Z"></path>
                                    <path d="M105.8,80.4 L105.8,17 C105.2,16.8 104.6,16.8 104.2,16.8 L104.2,80.6 L105.8,80.6 L105.8,80.4 Z"></path>
                                    <path d="M100,80.4 L100,17.2 C99.4,17.4 98.8,17.6 98.4,18 L98.4,80.4 L100,80.4 L100,80.4 Z"></path>
                                    <path d="M94.4,80.4 L94.4,20.6 C93.8,21 93.2,21.4 92.8,21.8 L92.8,80.2 L94.4,80.2 L94.4,80.4 Z"></path>
                                    <path d="M88.6,80.4 L88.6,25.4 C88,26 87.4,26.4 87,27 L87,80.6 L88.6,80.6 L88.6,80.4 Z"></path>
                                    <path d="M83,80.4 L83,30.6 C82.4,31.2 81.8,31.6 81.4,32.2 L81.4,80.4 L83,80.4 L83,80.4 Z"></path>
                                    <path d="M77.4,80.4 L77.4,36 C76.8,36.6 76.2,37 75.8,37.6 L75.8,80.4 L77.4,80.4 Z"></path>
                                    <path d="M71.6,80.4 L71.6,41 C71,41.4 70.4,42 70,42.4 L70,80.6 L71.6,80.6 L71.6,80.4 Z"></path>
                                    <path d="M66,80.4 L66,45.6 C65.6,46.2 65,46.6 64.4,47 L64.4,80.6 L66,80.6 L66,80.4 Z"></path>
                                    <path d="M60.2,80.4 L60.2,47.6 C59.6,47.6 59,47.6 58.6,47.4 L58.6,80.4 L60.2,80.4 Z"></path>
                                    <path d="M54.6,80.4 L54.6,46 C54,45.6 53.4,45.4 53,45 L53,80.4 L54.6,80.4 Z"></path>
                                    <path d="M48.8,80.4 L48.8,42.2 C48.2,41.8 47.8,41.4 47.2,41 L47.2,80.2 L48.8,80.2 L48.8,80.4 Z"></path>
                                    <path d="M43.2,80.4 L43.2,38.4 C42.6,38 42,37.8 41.6,37.4 L41.6,80.4 L43.2,80.4 Z"></path>
                                    <path d="M37.4,80.4 L37.4,36 C37.2,36 36.8,35.8 36.6,35.8 C36.4,35.8 36,35.8 35.8,35.8 L35.8,80.6 L37.4,80.6 L37.4,80.4 Z"></path>
                                    <path d="M31.8,80.4 L31.8,35.8 C31.2,36 30.6,36 30.2,36.2 L30.2,80.4 L31.8,80.4 Z"></path>
                                    <path d="M26,80.4 L26,37.8 C25.4,38 24.8,38.4 24.4,38.6 L24.4,80.4 L26,80.4 L26,80.4 Z"></path>
                                    <path d="M20.4,80.4 L20.4,40.6 C19.8,41 19.2,41.2 18.8,41.4 L18.8,80.4 L20.4,80.4 Z"></path>
                                    <path d="M14.8,80.4 L14.8,43.8 C14.2,44.2 13.6,44.6 13.2,45 L13.2,80.6 L14.8,80.6 L14.8,80.4 Z"></path>
                                    <path d="M9,80.4 L9,47.4 C8.4,47.8 7.8,48 7.4,48.4 L7.4,80.4 L9,80.4 Z"></path>
                                    <path d="M1.8,79.4 C2.2,79.8 2.8,80 3.4,80 L3.4,50.4 C2.8,50.6 2.2,50.8 1.8,51 L1.8,79.4 C1.6,79.4 1.8,79.4 1.8,79.4 Z"></path>
                                </g>
                                <g transform="translate(0.000000, 22.000000)">
                                    <polygon id="路径" fill="#FF4A83" points="252 1 252 4.2 232.2 19.2 205.6 11.8 156.4 65 105.2 23.8 64.4 59.4 36.2 42.6 0.4 63.4 0.4 60.6 36.2 39.8 64.2 56.4 105.2 20.6 156.2 61.6 204.8 9 231.6 16.6"></polygon>
                                    <ellipse id="椭圆形" fill="#FF296D" cx="36.2" cy="41.2" rx="3.8" ry="3.6"></ellipse>
                                    <ellipse id="椭圆形" fill="#FF296D" cx="64.4" cy="57.6" rx="3.8" ry="3.6"></ellipse>
                                    <ellipse id="椭圆形" fill="#FF296D" cx="105.4" cy="22.2" rx="3.8" ry="3.6"></ellipse>
                                    <ellipse id="椭圆形" fill="#FF296D" cx="156.4" cy="63.4" rx="3.8" ry="3.6"></ellipse>
                                    <ellipse id="椭圆形" fill="#FF296D" cx="205" cy="11" rx="3.8" ry="3.6"></ellipse>
                                    <ellipse id="椭圆形" fill="#FF296D" cx="231.6" cy="18.2" rx="3.8" ry="3.6"></ellipse>
                                </g>
                                <g transform="translate(12.000000, 10.000000)">
                                    <rect id="矩形" fill="#FFFFFF" x="0.6" y="17.4" width="140" height="3.8"></rect>
                                    <rect id="矩形" fill="#FFFFFF" x="0.6" y="9" width="140" height="3.8"></rect>
                                    <rect id="矩形" fill="#42E4FF" x="0.6" y="17.4" width="26" height="3.8"></rect>
                                    <rect id="矩形" fill="#42E4FF" x="0.6" y="9" width="51.4" height="3.8"></rect>
                                    <path d="M16.8,4.4 L2.6,4.4 C1.6,4.4 0.6,3.6 0.6,2.6 L0.6,2.6 C0.6,1.6 1.4,0.8 2.6,0.8 L16.8,0.8 C17.8,0.8 18.8,1.6 18.8,2.6 L18.8,2.6 C18.8,3.6 18,4.4 16.8,4.4 Z" id="路径" fill="#FF4A83"></path>
                                </g>
                                <polygon id="路径" fill="#FB57A6" points="260 20 242.4 20.4 251.8 25 252 34.4"></polygon>
                                <g transform="translate(270.000000, 24.000000)" fill="#42E4FF" id="矩形">
                                    <rect x="1" y="0" width="66.4" height="9.2"></rect>
                                    <rect x="1" y="17.2" width="66.4" height="9.2"></rect>
                                    <rect x="1" y="33.6" width="66.4" height="9.2"></rect>
                                </g>
                            </g>
                            <g id="编组" transform="translate(40.800000, 269.000000)">
                                <path d="M7.8,95 L215.4,95 C219.6,95 223,91.6 223,87.4 L223,8.4 C223,4.2 219.6,0.8 215.4,0.8 L7.8,0.8 C3.6,0.8 0.2,4.2 0.2,8.4 L0.2,87.4 C0.2,91.6 3.6,95 7.8,95 Z" id="路径" fill="#DBF4FF"></path>
                                <g transform="translate(132.000000, 16.000000)">
                                    <path d="M7.6,32.4 L38.8,32.4 L38.8,17.2 C38.8,10.8 33.6,5.4 27,5.4 L19.4,5.4 C13,5.4 7.6,10.6 7.6,17.2 L7.6,32.4 L7.6,32.4 Z M44.2,37.8 L2.2,37.8 L2.2,17.2 C2.2,7.8 10,-5.68434189e-14 19.4,-5.68434189e-14 L27,-5.68434189e-14 C36.4,-5.68434189e-14 44.2,7.8 44.2,17.2 L44.2,37.8 Z" id="形状" fill="#FF296D"></path>
                                    <path d="M35,67.2 L11.4,67.2 C5.8,67.2 1.2,62.6 1.2,57 L1.2,33.4 C1.2,27.8 5.8,23.2 11.4,23.2 L35,23.2 C40.6,23.2 45.2,27.8 45.2,33.4 L45.2,57 C45.2,62.6 40.6,67.2 35,67.2 Z" id="路径" fill="#FF4A83"></path>
                                    <path d="M28.2,40 C28.2,37 25.4,34.6 22.2,35.2 C20.2,35.6 18.6,37.2 18.4,39.2 C18,41.2 19,43.2 20.6,44.2 L20.6,54 L26,54 L26,44.2 C27.2,43.4 28.2,41.8 28.2,40 Z" id="路径" fill="#FFFFFF"></path>
                                </g>
                                <g transform="translate(46.000000, 12.000000)" id="路径">
                                    <path d="M26,0.6 L18.4,0.6 C9,0.6 1.6,8 1.2,17.2 L6.6,17.2 C6.8,11 12,6 18.2,6 L25.8,6 C32.2,6 37.6,11.2 37.6,17.8 L37.6,33 L19.6,33 C19,35.2 17.6,37 16,38.4 L43,38.4 L43,17.8 C43.2,8.4 35.6,0.6 26,0.6 Z" fill="#FF296D"></path>
                                    <path d="M34,71.2 L10.4,71.2 C4.8,71.2 0.2,66.6 0.2,61 L0.2,37.4 C0.2,31.8 4.8,27.2 10.4,27.2 L34,27.2 C39.6,27.2 44.2,31.8 44.2,37.4 L44.2,61 C44.2,66.6 39.6,71.2 34,71.2 Z" fill="#FF4A83"></path>
                                    <path d="M27.2,44 C27.2,41 24.4,38.6 21.2,39.2 C19.2,39.6 17.6,41.2 17.4,43.2 C17,45.2 18,47.2 19.6,48.2 L19.6,58 L25,58 L25,48.2 C26.4,47.4 27.2,45.8 27.2,44 Z" fill="#FFFFFF"></path>
                                </g>
                            </g>
                            <g id="编组" transform="translate(348.800000, 269.000000)">
                                <path d="M189,95.4 L8.8,95.4 C4.4,95.4 0.8,91.8 0.8,87.4 L0.8,9 C0.8,4.6 4.4,1 8.8,1 L189,1 C193.4,1 197,4.6 197,9 L197,87.4 C197,91.8 193.4,95.4 189,95.4 Z" id="路径" fill="#DBF4FF"></path>
                                <g transform="translate(26.000000, 24.000000)">
                                    <rect id="矩形" fill="#3E85FF" x="1.6" y="5.4" width="9.2" height="49.8"></rect>
                                    <rect id="矩形" fill="#42E4FF" x="17" y="22" width="9.2" height="33.2"></rect>
                                    <rect id="矩形" fill="#42E4FF" x="32.4" y="33.8" width="9.2" height="21.4"></rect>
                                    <rect id="矩形" fill="#3E85FF" x="47.8" y="11.6" width="9.2" height="43.6"></rect>
                                    <rect id="矩形" fill="#42E4FF" x="63.2" y="22" width="9.2" height="33.2"></rect>
                                    <g transform="translate(98.000000, 0.000000)" id="路径">
                                        <path d="M8.2,8.2 C4.8,11.6 2.6,15.8 1.4,20 C-0.4,26.2 0.2,33 3.2,38.8 L10.6,33.8 C8.6,29 8.8,23.4 11.2,18.8 C12,17.2 13.2,15.6 14.6,14.2 C15.6,13.2 16.6,12.4 17.8,11.6 L12.8,4.4 C11,5.8 9.4,7 8.2,8.2 Z" fill="#42E4FF"></path>
                                        <path d="M52,17.6 C50.8,14.6 49.2,11.8 47,9.4 L40.8,15.6 C42.6,17.6 43.8,20.2 44.6,22.6 C46.2,28.6 44.6,35.2 40,40 C35.8,44.2 30,45.8 24.6,45 L20.6,53.2 C29.4,55.4 39.2,53.2 46.2,46.2 C53.6,38.4 55.6,27.2 52,17.6 Z" fill="#FF4A83"></path>
                                        <path d="M3,39 C4.2,41.6 6,44 8,46.2 C9.4,47.6 10.8,48.8 12.4,49.8 C14.8,51.4 17.4,52.6 20.2,53.2 L24.2,45 C22.2,44.6 20.2,44 18.4,43 C17,42.2 15.6,41.2 14.4,40 C12.6,38.2 11.4,36.2 10.6,34.2 L3,39 Z" fill="#3E85FF"></path>
                                        <path d="M12.4,4.8 L17.4,12 C21.6,9.4 26.8,8.6 31.4,9.8 C34.4,10.6 37.2,12.2 39.6,14.4 C40,14.8 40.2,15 40.6,15.4 L46.8,9.2 C46.4,8.8 46.2,8.6 45.8,8.2 C43,5.4 40,3.6 36.6,2.2 C28.8,-0.8 19.8,-1.11022302e-16 12.4,4.8 Z" fill="#310078"></path>
                                    </g>
                                </g>
                            </g>
                        </g>
                        <g id="编组-139" transform="translate(0.000000, 73.000000)">
                            <path d="M111.323675,8.24281445 C134.508337,7.04961169 144.599392,21.907827 140.018177,41.0842998 L140.018177,41.0842998 C142.939795,45.1089607 145.496922,49.3467187 147.663853,53.7549767 C148.035303,54.5504452 145.651833,55.7720576 142.742142,56.8800316 L144.104125,69.8348044 C144.104125,71.5961989 145.063704,77.4201647 129.369947,75.3178551 L128.565139,105.602477 L93.2774022,94.0681842 L94.5774767,65.6585947 C89.3771787,55.6300096 85.8174508,49.9480918 84.2078347,40.5729272 C83.9872977,39.5030892 83.8425416,38.4212574 83.7744766,37.334234 C82.6406009,22.3222687 94.9686985,9.3040364 111.323675,8.24281445 L111.323675,8.24281445 Z" id="路径" fill="#F9AA8F"></path>
                            <path d="M73.7000263,22.4435579 C73.3041662,-3.79143781 103.085023,-1.14804171 124.035155,1.80801414 C177.658967,9.42554268 142.305619,25.1722248 124.035155,21.5340022 C124.33107,28.734902 121.063534,35.662933 115.17398,40.322011 C111.89509,42.0646049 108.38287,43.3931713 104.729365,44.2728934 C106.145772,47.9547829 107.824308,51.5441622 109.753742,55.0170195 L106.221452,58.0583462 C103.701047,55.0085627 100.996705,52.0951673 98.1215467,49.3322967 C96.5685572,48.1953521 93.7061845,47.1152548 92.031392,48.5648591 C91.0228504,49.616641 90.5754633,51.0364941 90.813361,52.4304706 C91.1914791,56.073287 93.7356154,59.2066625 97.3907281,60.5312006 C97.3907281,61.6965687 98.3956037,69.0582847 98.3956037,69.0582847 L94.3152,76.3063063 C94.3152,76.3063063 87.8291852,67.2107498 78.6939532,53.5674151 C69.3151149,39.6966915 62.8595509,22.6425232 73.7000263,22.4435579 Z" id="路径" fill="#DE6E5F"></path>
                            <path d="M152.351176,560.457054 L148.720812,560.457054 L108.454023,317.679694 L81.8313536,561.396396 L61.1987844,561.396396 C61.1987844,561.396396 48.8857996,391.233064 53.3632486,279.935201 L162.637207,278.654279 C167.326428,352.663089 170.170213,560.457054 170.170213,560.457054 L152.502441,560.457054 L152.351176,560.457054 Z" id="路径" fill="#1A2056"></path>
                            <path d="M314.669862,156.802603 C311.878682,148.655529 310.468085,144.596387 310.468085,144.596387 L324.00381,132.24623 C327.359579,130.941376 330.992796,130.428007 334.59829,130.749241 C337.59956,130.000747 339.61041,129.482558 340.270689,129.252252 C340.990994,131.181065 340.270689,132.706842 337.959712,133.829583 L345.102733,133.138665 C346.446318,134.368043 346.905522,136.242863 346.273228,137.917514 C344.703542,139.161945 342.9798,140.215878 341.141057,141.055433 C342.339365,142.441037 342.339365,144.448677 341.141057,145.834281 L337.539534,147.043388 C338.301601,149.872033 337.093057,152.851274 334.538265,154.441967 C332.783831,154.724072 331.002415,154.820611 329.226018,154.729849 C324.759763,156.985157 319.626548,157.716111 314.669862,156.802603 Z" id="路径" fill="#F9AA8F"></path>
                            <path d="M112.354716,100.159985 C104.553575,97.116566 96.7219605,94.954885 93.3699077,82.9234234 C89.4388639,90.0057731 87.7933107,90.4608639 87.7933107,90.4608639 C68.8999221,98.9938153 48.178141,107.071676 31.4178769,114.978878 C19.9599509,147.840222 9.48732526,180.682604 0,213.506024 C2.71806673,220.819699 6.55692566,227.727275 11.3969796,234.013551 L30.6255735,239.872844 C44.3385169,231.567438 51.2254618,227.443178 51.2254618,227.443178 L48.4828731,240.612366 L50.8293101,244.082433 C49.1947069,250.529337 46.8245785,256.794164 43.7595259,262.769597 C44.9784542,271.378397 47.7921471,276.934296 52.2006044,279.437296 C97.3618979,281.200772 134.05164,280.774125 162.26983,278.157353 C168.090212,275.057047 171.411792,271.956741 172.082203,268.799549 C172.279307,260.720307 170.108727,252.744229 165.804722,245.732137 C166.861442,242.175796 167.705833,238.567443 168.333998,234.923732 C165.745464,211.136987 165.286776,187.190177 166.962704,163.332269 C191.625686,178.501961 209.808033,189.120745 221.509745,195.188621 C228.48383,197.76508 236.018848,198.740539 243.480928,198.032939 L308.632645,165.806825 L317.957447,162.62119 L311.192395,143.365163 L302.050433,146.408582 C280.576979,151.604202 258.63627,156.723973 236.228304,161.767895 C219.285201,145.650098 202.738249,130.480406 186.587449,116.25882 C169.538499,107.128132 151.992749,98.8305011 134.021166,91.3994885 C132.128909,89.0508689 130.418089,86.5795539 128.901668,84.0042639 C127.621793,93.4189537 125.001097,96.2348277 112.354716,100.159985 Z" id="路径" fill="#236CE4"></path>
                            <path d="M155.175863,145.844754 L177.441427,152.531023 C178.00814,152.694454 178.483216,153.06761 178.761176,153.567639 C179.039135,154.067668 179.096974,154.653189 178.92185,155.194197 C178.53952,156.317074 177.292801,156.944945 176.109046,156.61078 L153.813873,149.924511 C152.759303,149.481328 152.224716,148.347711 152.575202,147.29785 C152.925688,146.24799 154.048084,145.620861 155.175863,145.844754 Z" id="路径" fill="#616060"></path>
                            <path d="M141.712178,144.645596 L190.832305,158.98075 C193.722077,159.836655 195.329278,162.700661 194.432413,165.396087 L170.024897,237.582814 C169.104175,240.272219 166.034026,241.776314 163.129773,240.960801 L114.131684,226.512101 C111.229659,225.66824 109.606726,222.800501 110.501066,220.096765 L134.908582,147.910037 C135.879138,145.30889 138.871698,143.873027 141.712178,144.645596 Z" id="路径" fill="#FFC941"></path>
                            <path d="M154.976915,150.702443 C155.295473,150.777519 155.560918,150.94493 155.714317,151.167507 C155.867716,151.390085 155.896377,151.649412 155.793936,151.887916 C155.699645,152.130755 155.478958,152.334837 155.181724,152.454067 C154.884489,152.573297 154.53578,152.597616 154.214362,152.521531 C153.727877,152.454059 153.336756,152.182227 153.20982,151.823367 C153.082883,151.464507 153.24286,151.082878 153.6207,150.843202 C153.99854,150.603526 154.526586,150.548722 154.976915,150.702443 L154.976915,150.702443 Z" id="路径" fill="#817054"></path>
                            <path d="M173.303867,156.097923 C173.989352,156.272823 174.363963,156.826047 174.148123,157.344714 C173.927007,157.85641 173.198105,158.139048 172.51408,157.978329 C172.177119,157.907762 171.893325,157.736764 171.728697,157.505102 C171.56407,157.273439 171.532955,157.001302 171.642591,156.751977 C171.876019,156.236794 172.606403,155.949237 173.303867,156.097923 L173.303867,156.097923 Z" id="路径" fill="#817054"></path>
                            <path d="M103.017448,189.375771 L95.9574468,177.488699 C102.165812,172.738572 108.82208,168.517336 115.845621,164.876126 C120.122209,164.94874 124.359901,165.645548 128.403411,166.941016 L136.635072,174.837827 C137.301713,177.086245 135.992898,179.432439 133.630816,180.223284 C133.61488,182.996496 131.885359,185.51464 129.184517,186.696994 C127.916729,189.797823 124.279499,191.456486 120.862728,190.491928 C114.887384,190.831396 108.889843,190.456272 103.017448,189.375771 L103.017448,189.375771 Z" id="路径" fill="#F9AA8F"></path>
                            <polygon id="路径" fill="#642818" points="337 136.88964 339.629416 133.655672 409.492378 91.9234234 410.531915 93.0201604 344.276755 136.214725"></polygon>
                            <path d="M167.22082,560.173426 L167.404891,573.690778 L183.787234,584.862144 L155.010759,584.862144 L153.660903,560.033784 L167.22082,560.173426 Z M78.4677909,561.095064 L77.2713276,585.923423 L46.2553191,585.923423 L64.6624458,573.495279 L65.1533025,561.095064 L78.4677909,561.095064 Z" id="形状" fill="#000000" fill-rule="nonzero"></path>
                            <polygon id="路径-2" fill="#0D439B" points="45 187 43.2341655 191.545744 41 198 96 177"></polygon>
                            <polygon id="路径-2备份" fill="#0D439B" points="50.5089858 227.34144 49 236 56 232 103 192"></polygon>
                        </g>
                    </g>
                    <g id="编组-60" transform="translate(669.000000, 329.000000)">
                        <path d="M118,289 L118,289 C106.45032,289 97,279.662077 97,268.248202 L97,20.7510957 C97,9.33792282 106.45032,0 118,0 C129.54968,0 139,9.33792282 139,20.7510957 L139,268.248202 C139,279.662077 129.54968,289 118,289" id="Fill-113" fill="#00A164"></path>
                        <path d="M26,143 L26,143 C16.1001778,143 8,135.02715 8,125.282945 L8,34.717055 C8,24.9721499 16.1001778,17 26,17 C35.8998222,17 44,24.9721499 44,34.717055 L44,125.282945 C44,135.02715 35.8998222,143 26,143" id="Fill-114" fill="#00A164"></path>
                        <path d="M130,125 L130,125 C130,134.899822 121.969074,143 112.15389,143 L25.8461103,143 C16.0309259,143 8,134.899822 8,125 C8,115.100178 16.0309259,107 25.8461103,107 L112.15389,107 C121.969074,107 130,115.100178 130,125" id="Fill-115" fill="#00A164"></path>
                        <path d="M171,256 L171,302.807913 C171,319.4097 157.383894,333 140.734949,333 L93.2650508,333 C76.6161063,333 63,319.4097 63,302.807913 L63,256 L171,256 Z" id="Fill-116" fill="#285FD7"></path>
                        <path d="M130,92 L146,80" id="Stroke-117" stroke="#23426F" stroke-width="3.5"></path>
                        <path d="M20,150 L36,138" id="Stroke-118" stroke="#23426F" stroke-width="3.5"></path>
                        <path d="M131,192 L147,180" id="Stroke-119" stroke="#23426F" stroke-width="3.5"></path>
                        <path d="M114,240 L130,228" id="Stroke-120" stroke="#23426F" stroke-width="3.5"></path>
                        <path d="M106,45 L94,31" id="Stroke-121" stroke="#23426F" stroke-width="3.5"></path>
                        <path d="M73,113 L61,99" id="Stroke-122" stroke="#23426F" stroke-width="3.5"></path>
                        <path d="M103,223 L91,209" id="Stroke-123" stroke="#23426F" stroke-width="3.5"></path>
                        <path d="M128,18 L141,5" id="Stroke-124" stroke="#23426F" stroke-width="3.5"></path>
                        <path d="M36,77 L49,64" id="Stroke-125" stroke="#23426F" stroke-width="3.5"></path>
                        <path d="M115,91 L100,82" id="Stroke-126" stroke="#23426F" stroke-width="3.5"></path>
                        <path d="M104,162 L86,155" id="Stroke-127" stroke="#23426F" stroke-width="3.5"></path>
                        <path d="M17,53 L0,41" id="Stroke-128" stroke="#23426F" stroke-width="3.5"></path>
                        <path d="M121,59 L134,49" id="Stroke-129" stroke="#FFFFFF" stroke-width="3.5"></path>
                        <path d="M30,106 L18,92" id="Stroke-130" stroke="#FFFFFF" stroke-width="3.5"></path>
                        <path d="M117,145 L127,129" id="Stroke-131" stroke="#FFFFFF" stroke-width="3.5"></path>
                        <polyline id="Stroke-132" stroke="#AAD5FF" stroke-width="3.5" points="171 296 144.001407 282 117.003518 296 90.0014073 282 63 296"></polyline>
                        <path d="M94,303.5 C94,305.985934 91.9853752,308 89.5003596,308 C87.015344,308 85,305.985934 85,303.5 C85,301.014786 87.015344,299 89.5003596,299 C91.9853752,299 94,301.014786 94,303.5" id="Fill-133" fill="#AAD5FF"></path>
                        <path d="M147,303.5 C147,305.985934 144.985375,308 142.50036,308 C140.015344,308 138,305.985934 138,303.5 C138,301.014786 140.015344,299 142.50036,299 C144.985375,299 147,301.014786 147,303.5" id="Fill-134" fill="#AAD5FF"></path>
                        <path d="M121,278.5 C121,280.985214 118.985375,283 116.50036,283 C114.015344,283 112,280.985214 112,278.5 C112,276.014066 114.015344,274 116.50036,274 C118.985375,274 121,276.014066 121,278.5" id="Fill-135" fill="#AAD5FF"></path>
                        <path d="M170,274 L170,283 C167.795527,283 166,280.985612 166,278.503597 C166,276.014388 167.795527,274 170,274" id="Fill-136" fill="#AAD5FF"></path>
                        <path d="M67,278.503597 C67,280.985612 65.2108626,283 63,283 L63,274 C65.2108626,274 67,276.014388 67,278.503597" id="Fill-137" fill="#AAD5FF"></path>
                    </g>
                </g>
            </g>
        </g>
    </g>
</svg>